<svg width="271" height="200" viewBox="0 0 271 200" fill="none" xmlns="http://www.w3.org/2000/svg">
<mask id="mask0_101_11" style="mask-type:luminance" maskUnits="userSpaceOnUse" x="0" y="0" width="271" height="200">
<path d="M270.048 0H0V199.746H270.048V0Z" fill="white"/>
</mask>
<g mask="url(#mask0_101_11)">
<path d="M270.05 128.34C270.05 140.815 266.781 153.072 260.57 163.891C254.359 174.709 245.422 183.712 234.65 190.002C223.877 196.293 211.644 199.651 199.17 199.743C186.695 199.835 174.414 196.658 163.55 190.527C156.246 195.894 147.559 199.058 138.515 199.646C129.471 200.234 120.447 198.221 112.51 193.846C102.664 197.771 92.1567 199.774 81.557 199.746C36.587 199.746 0.00299072 164.263 0.00299072 120.646C0.00299072 77.029 36.587 41.546 81.557 41.546H81.576C90.4776 26.6934 103.679 14.8933 119.433 7.70663C135.187 0.519978 152.751 -1.71453 169.803 1.29872C186.855 4.31197 202.59 12.431 214.927 24.5817C227.263 36.7324 235.621 52.3422 238.893 69.346C248.53 75.8667 256.413 84.6594 261.846 94.948C267.28 105.237 270.098 116.705 270.05 128.34ZM162.827 172.225C164.487 172.224 166.108 172.729 167.474 173.672C173.537 177.838 180.375 180.746 187.582 182.224C194.789 183.702 202.219 183.719 209.433 182.275C216.646 180.83 223.497 177.954 229.58 173.816C235.663 169.678 240.854 164.362 244.846 158.182C248.838 152.003 251.55 145.085 252.823 137.839C254.095 130.593 253.9 123.165 252.252 115.996C250.603 108.826 247.533 102.06 243.224 96.0971C238.914 90.1346 233.452 85.0969 227.162 81.282C226.13 80.6553 225.25 79.8085 224.584 78.802C223.918 77.7956 223.482 76.6544 223.308 75.46C221.183 60.9929 214.525 47.5723 204.292 37.1277C194.058 26.6832 180.776 19.7528 166.356 17.3331C151.935 14.9133 137.119 17.1289 124.036 23.6611C110.954 30.1934 100.281 40.7058 93.55 53.687C92.8221 55.0969 91.699 56.264 90.3181 57.0455C88.9372 57.827 87.3584 58.1889 85.775 58.087C84.155 57.987 82.812 57.939 81.55 57.939C45.616 57.939 16.381 86.072 16.381 120.65C16.381 155.228 45.62 183.36 81.55 183.36C91.2826 183.391 100.904 181.289 109.737 177.203C111.029 176.606 112.454 176.355 113.872 176.475C115.29 176.596 116.652 177.084 117.824 177.891C123.748 181.965 130.901 183.858 138.065 183.248C145.228 182.638 151.958 179.563 157.108 174.546C158.639 173.056 160.691 172.223 162.827 172.225Z" fill="#4F80E1"/>
<path d="M92.193 91.675H80.014C79.5294 91.675 79.0647 91.8675 78.7221 92.2101C78.3795 92.5528 78.187 93.0174 78.187 93.502V122.123H78.218L94.018 106.323V93.503C94.0182 93.0186 93.8262 92.554 93.4839 92.2112C93.1417 91.8684 92.6774 91.6755 92.193 91.675Z" fill="#292C44"/>
<path d="M142.074 78.325C140.222 76.4728 137.709 75.4322 135.09 75.4322C132.47 75.4322 129.958 76.4728 128.106 78.325L97.099 109.332L94.02 112.412L78.22 128.212L42.008 164.424C51.6782 171.495 63.062 175.855 74.9819 177.051C86.9018 178.248 98.925 176.239 109.808 171.231C111.1 170.635 112.524 170.385 113.942 170.505C115.359 170.626 116.721 171.114 117.893 171.92C123.816 175.994 130.97 177.887 138.133 177.277C145.296 176.667 152.026 173.591 157.175 168.574C158.535 167.253 160.311 166.443 162.2 166.284C164.09 166.125 165.976 166.625 167.538 167.7C176.862 174.122 187.944 177.506 199.265 177.386C210.586 177.266 221.594 173.65 230.78 167.032L142.074 78.325ZM134.359 152.892C134.359 153.263 134.211 153.619 133.949 153.882C133.686 154.144 133.33 154.292 132.959 154.292H121.582C121.211 154.292 120.855 154.144 120.592 153.882C120.329 153.619 120.182 153.263 120.182 152.892V141.515C120.182 141.144 120.329 140.788 120.592 140.525C120.855 140.263 121.211 140.115 121.582 140.115H132.959C133.33 140.115 133.686 140.263 133.949 140.525C134.211 140.788 134.359 141.144 134.359 141.515V152.892ZM134.359 135.662C134.359 136.033 134.211 136.389 133.949 136.652C133.686 136.915 133.33 137.062 132.959 137.062H121.582C121.211 137.062 120.855 136.915 120.592 136.652C120.329 136.389 120.182 136.033 120.182 135.662V124.285C120.182 123.914 120.329 123.558 120.592 123.295C120.855 123.033 121.211 122.885 121.582 122.885H132.959C133.33 122.885 133.686 123.033 133.949 123.295C134.211 123.558 134.359 123.914 134.359 124.285V135.662ZM152.606 152.892C152.606 153.263 152.458 153.619 152.196 153.882C151.933 154.144 151.577 154.292 151.206 154.292H139.829C139.458 154.292 139.102 154.144 138.839 153.882C138.576 153.619 138.429 153.263 138.429 152.892V141.515C138.429 141.144 138.576 140.788 138.839 140.525C139.102 140.263 139.458 140.115 139.829 140.115H151.206C151.577 140.115 151.933 140.263 152.196 140.525C152.458 140.788 152.606 141.144 152.606 141.515V152.892ZM152.606 135.662C152.606 136.033 152.458 136.389 152.196 136.652C151.933 136.915 151.577 137.062 151.206 137.062H139.829C139.458 137.062 139.102 136.915 138.839 136.652C138.576 136.389 138.429 136.033 138.429 135.662V124.285C138.429 123.914 138.576 123.558 138.839 123.295C139.102 123.033 139.458 122.885 139.829 122.885H151.206C151.577 122.885 151.933 123.033 152.196 123.295C152.458 123.558 152.606 123.914 152.606 124.285V135.662Z" fill="#292C44"/>
</g>
</svg>
